<svg id="Layer_1" data-name="Layer 1" xmlns="http://www.w3.org/2000/svg" xmlns:xlink="http://www.w3.org/1999/xlink" viewBox="0 0 1080 1080"><defs><style>.cls-1{fill:none;}.cls-2{fill:#424a4f;}.cls-3{fill:#3594ba;}.cls-4{fill:#fff;}.cls-5{clip-path:url(#clip-path);}.cls-6{fill:#fbbc05;}.cls-7{fill:#ea4335;}.cls-8{fill:#34a853;}.cls-9{fill:#4285f4;}</style><clipPath id="clip-path"><path class="cls-1" d="M286,863H229v23h32.45c-2.36,11.63-10.64,19.36-22.18,22.15-22.74,5.51-45.7-10.86-45.85-34.26A35.62,35.62,0,0,1,228.77,838H229a35.3,35.3,0,0,1,22.5,8.06l17.78-17.78a61.17,61.17,0,1,0-40.28,107h0c30.56,0,58.35-22.22,58.35-61.12A51.41,51.41,0,0,0,286,863Z"/></clipPath></defs><title>icon</title><g id="Background"><rect class="cls-2" x="-12" y="-10" width="1099" height="1099"/></g><g id="Branding_Background" data-name="Branding Background"><rect class="cls-3" x="79" y="-10" width="280" height="289"/></g><g id="Kangaroo"><g id="Layer_1-2" data-name="Layer 1-2"><path class="cls-4" d="M255.36,133.43c21.66,2.49,12.1,16.42-6,22.35,12-17.78,2.57-13.19-23.66-20.83,44.47-14.78,44.3-33.28,42-47.39-4.18-8.18-10.74-14.87-6-21.56,3.25,1.67,8.93,7.3,10.47,10.14,9.51,1.52,15.76,10.45,30.79,18.15a6.45,6.45,0,0,1-4.21,6.26c-5,2-10.79-1.7-16.23,3.76-3.54,3.55-4.18,10.34-7.34,14.63C270,126.08,261.85,130.51,255.36,133.43Z"/><path class="cls-4" d="M258.84,97.47c0,1.91-3,16.8-23.94,23.49-8.89,2.44-18.16,2.33-29-2,27.25,29.14-.43,38.64-9.44,58.73-2.22,6,2.9,16.92,3,22.62A12.22,12.22,0,0,1,188.56,212c.23-1.82,1.75-10.95,1.08-14.54-.76-4.06-4.62-10-5.41-15.51-1.34-9.73,9.36-20.19,10.88-27.41.56-2.65-1.22-6.05-3.74-10.14-2.66-4.26-6.46-7.79-6.85-7.66-2,1-5,7.75-6.08,10.63-3.42,9.37-9,29.11-15.34,36.81-4.62,5.61-16.34,11.16-27.89,7.84,10.37,0,20.32-7.81,22.94-14,6.69-15.76,3.17-42.28,22.11-64.82,21.8-23.44,43.78-13,62.41-12.3A33.14,33.14,0,0,0,258.84,97.47Z"/></g></g><g id="Message"><g id="Right_Panel" data-name="Right Panel"><g id="Message-2" data-name="Message"><path class="cls-4" d="M117,464.5v430C117,947.29,163.74,990,221.39,990H456.18l203.67,139.87c12.88,8.66,31.15.15,31.15-14.48V990H846.58C904.25,990,951,947.24,951,894.48v-430c0-52.74-46.75-95.5-104.42-95.5H221.42C163.75,369,117,411.76,117,464.5ZM482,763v-24.1A12.58,12.58,0,0,1,495.06,727H730.94A12.58,12.58,0,0,1,744,738.94V763a12.59,12.59,0,0,1-13.06,12H495.06A12.59,12.59,0,0,1,482,763ZM324,620V596a12.58,12.58,0,0,1,13.05-12H728a12.58,12.58,0,0,1,13,12V620a12.58,12.58,0,0,1-13,12H337.05A12.58,12.58,0,0,1,324,620Z"/></g><g id="Google_Logo" data-name="Google Logo"><g class="cls-5"><path class="cls-6" d="M159,911.18V837.67l48.07,36.76Z"/></g><g class="cls-5"><path class="cls-7" d="M162,836.1l47.81,36.75,19.7-17.24,67.49-11V805H162Z"/></g><g class="cls-5"><path class="cls-8" d="M162,911.82l84.37-65,22.24,2.83L297,807.28V943H162Z"/></g><g class="cls-5"><path class="cls-9" d="M296,942.3l-87.63-67.87-11.32-8.38L296,837.78Z"/></g></g></g></g></svg>