<svg id="Layer_1" data-name="Layer 1" xmlns="http://www.w3.org/2000/svg" viewBox="0 0 496 496">
	<g class="empire-border">
		<path d="M287.6,54.2a194.08,194.08,0,0,0-33.5-3.6V32.4A223.54,223.54,0,0,1,438.7,139l-15.8,9.1A194.74,194.74,0,0,0,402.7,121l-18,15.5A180.32,180.32,0,0,0,282.8,78.1ZM53.4,322.4l23-7.7a179.83,179.83,0,0,1-.3-117.4l-22.7-7.7a191.48,191.48,0,0,1,13.6-31l-15.8-9.1a223,223,0,0,0,0,213.1L67,353.5A239.85,239.85,0,0,1,53.4,322.4ZM213.1,434a183.13,183.13,0,0,1-101.9-58.7l-18,15.8A191.5,191.5,0,0,1,73,363.7l-16,9.4A225,225,0,0,0,241.9,479.7V461.4a230.43,230.43,0,0,1-33.5-3.6l4.7-23.8ZM93.3,120.9l18,15.5A180.32,180.32,0,0,1,213.2,78l-4.7-23.8A194.08,194.08,0,0,1,242,50.6V32.4A223.54,223.54,0,0,0,57.4,139l15.8,9.1A187.43,187.43,0,0,1,93.3,120.9ZM402.7,391.1l-18-15.8A182.45,182.45,0,0,1,282.8,434l4.7,23.8a228.94,228.94,0,0,1-33.5,3.6v18.3A224.77,224.77,0,0,0,438.9,373.1l-16.1-9.4A183.51,183.51,0,0,1,402.7,391.1ZM496,256c0,137-111,248-248,248S0,393,0,256,111,8,248,8,496,119,496,256Zm-12.2,0C483.8,125.9,378.1,20.2,248,20.2S12.2,125.9,12.2,256,117.9,491.8,248,491.8,483.8,386.1,483.8,256Zm-39-106.6L429,158.5a191.48,191.48,0,0,1,13.6,31l-22.7,7.7a179.83,179.83,0,0,1-.3,117.4l23,7.7a238.53,238.53,0,0,1-13.6,31l15.8,9.1a222.82,222.82,0,0,0,0-213Z" transform="translate(0 -8)"></path>
	</g>
	<g class="kangaroo">
		<path d="M301.49,237.92c35.62,4.11,19.9,27-9.8,36.76,19.7-29.22,4.23-21.69-38.89-34.25,73.11-24.29,72.82-54.73,69-77.92C314.9,149.08,304.14,138,312,127.06c5.34,2.75,14.66,12,17.21,16.66,15.62,2.51,25.91,17.2,50.62,29.86.38,1.35-.53,7.73-6.92,10.29-8.18,3.23-17.74-2.81-26.68,6.18-5.82,5.84-6.88,17-12.07,24.06C325.58,225.85,312.16,233.14,301.49,237.92Z" transform="translate(0 -8)"></path>
		<path d="M307.21,178.79c0,3.14-5,27.64-39.37,38.65-14.61,4-29.85,3.82-47.63-3.33,44.8,47.92-.72,63.52-15.53,96.56-3.65,9.91,4.76,27.83,4.86,37.2a20.08,20.08,0,0,1-17.89,19.28c.39-3,2.89-18,1.78-23.92-1.25-6.66-7.59-16.47-8.89-25.5-2.21-16,15.38-33.19,17.88-45.07.91-4.35-2-10-6.15-16.67-4.38-7-10.62-12.8-11.25-12.61-3.27,1.69-8.27,12.75-10,17.49-5.62,15.41-14.8,47.87-25.23,60.53-7.6,9.23-26.83,18.36-45.86,12.9,17.06,0,33.41-12.85,37.73-23.05,11-25.89,5.19-69.51,36.34-106.56,35.86-38.55,72-21.31,102.63-20.24C296.2,185,307,179,307.21,178.79Z" transform="translate(0 -8)"></path>
	</g>
</svg>